<svg width="1186" height="167" viewBox="0 0 1186 167" fill="none" xmlns="http://www.w3.org/2000/svg">
<path fill-rule="evenodd" clip-rule="evenodd" d="M221.9 160.175C228.2 162.725 235.475 164 243.725 164H264.875V135.425H249.35C244.4 135.425 240.875 134.525 238.775 132.725C236.825 130.775 235.85 127.55 235.85 123.05V78.725H264.875V50.6H235.85V18.65H205.7L202.1 50.6H185.194C188.204 54.4266 190 59.2536 190 64.5C190 69.8961 188.1 74.8485 184.934 78.725H202.1V122.6C202.1 132.95 203.825 141.125 207.275 147.125C210.725 153.125 215.6 157.475 221.9 160.175ZM290.82 2V164H324.57V103.925C324.57 98.225 325.62 93.35 327.72 89.3C329.82 85.1 332.745 81.875 336.495 79.625C340.245 77.375 344.37 76.25 348.87 76.25C356.52 76.25 362.07 78.575 365.52 83.225C369.12 87.875 370.92 94.4 370.92 102.8V164H404.445V99.65C404.445 88.7 402.795 79.4 399.495 71.75C396.195 63.95 391.32 58.025 384.87 53.975C378.42 49.925 370.395 47.9 360.795 47.9C352.545 47.9 345.345 49.625 339.195 53.075C333.045 56.525 328.17 61.1 324.57 66.8V2H290.82ZM432.994 50.6V164H466.744V50.6H432.994ZM435.244 32.375C438.994 35.825 443.869 37.55 449.869 37.55C456.019 37.55 460.969 35.825 464.719 32.375C468.619 28.925 470.569 24.575 470.569 19.325C470.569 13.925 468.619 9.5 464.719 6.05C460.969 2.6 456.019 0.875 449.869 0.875C443.869 0.875 438.994 2.6 435.244 6.05C431.494 9.5 429.619 13.925 429.619 19.325C429.619 24.575 431.494 28.925 435.244 32.375ZM516.059 161.75C523.859 165.05 533.084 166.7 543.734 166.7C553.934 166.7 562.709 165.125 570.059 161.975C577.409 158.675 583.034 154.175 586.934 148.475C590.984 142.775 592.934 136.25 592.784 128.9C592.934 120.8 591.134 114.65 587.384 110.45C583.634 106.1 578.384 102.8 571.634 100.55C565.034 98.3 557.159 96.2 548.009 94.25C543.209 93.2 539.159 92.15 535.859 91.1C532.559 90.05 530.009 88.85 528.209 87.5C526.559 86 525.734 84.35 525.734 82.55C525.734 79.85 527.009 77.675 529.559 76.025C532.109 74.375 535.859 73.55 540.809 73.55C545.159 73.55 548.759 74.375 551.609 76.025C554.459 77.525 556.334 79.775 557.234 82.775H588.734C587.234 72.125 582.434 63.65 574.334 57.35C566.234 51.05 555.059 47.9 540.809 47.9C530.759 47.9 522.209 49.55 515.159 52.85C508.109 56 502.709 60.35 498.959 65.9C495.209 71.3 493.334 77.375 493.334 84.125C493.334 89.675 494.534 94.4 496.934 98.3C499.484 102.05 502.784 105.125 506.834 107.525C511.034 109.925 515.759 111.95 521.009 113.6C526.409 115.1 531.809 116.45 537.209 117.65C541.859 118.55 545.834 119.525 549.134 120.575C552.434 121.475 554.909 122.675 556.559 124.175C558.359 125.675 559.259 127.85 559.259 130.7C559.259 132.5 558.659 134.225 557.459 135.875C556.259 137.525 554.459 138.875 552.059 139.925C549.809 140.825 546.809 141.275 543.059 141.275C539.609 141.275 536.459 140.75 533.609 139.7C530.909 138.5 528.734 136.925 527.084 134.975C525.584 132.875 524.534 130.55 523.934 128H490.409C491.009 135.35 493.484 141.95 497.834 147.8C502.334 153.65 508.409 158.3 516.059 161.75ZM637.568 161.75C645.368 165.05 654.593 166.7 665.243 166.7C675.443 166.7 684.218 165.125 691.568 161.975C698.918 158.675 704.543 154.175 708.443 148.475C712.493 142.775 714.443 136.25 714.293 128.9C714.443 120.8 712.643 114.65 708.893 110.45C705.143 106.1 699.893 102.8 693.143 100.55C686.543 98.3 678.668 96.2 669.518 94.25C664.718 93.2 660.668 92.15 657.368 91.1C654.068 90.05 651.518 88.85 649.718 87.5C648.068 86 647.243 84.35 647.243 82.55C647.243 79.85 648.518 77.675 651.068 76.025C653.618 74.375 657.368 73.55 662.318 73.55C666.668 73.55 670.268 74.375 673.118 76.025C675.968 77.525 677.843 79.775 678.743 82.775H710.243C708.743 72.125 703.943 63.65 695.843 57.35C687.743 51.05 676.568 47.9 662.318 47.9C652.268 47.9 643.718 49.55 636.668 52.85C629.618 56 624.218 60.35 620.468 65.9C616.718 71.3 614.843 77.375 614.843 84.125C614.843 89.675 616.043 94.4 618.443 98.3C620.993 102.05 624.293 105.125 628.343 107.525C632.543 109.925 637.268 111.95 642.518 113.6C647.918 115.1 653.318 116.45 658.718 117.65C663.368 118.55 667.343 119.525 670.643 120.575C673.943 121.475 676.418 122.675 678.068 124.175C679.868 125.675 680.768 127.85 680.768 130.7C680.768 132.5 680.168 134.225 678.968 135.875C677.768 137.525 675.968 138.875 673.568 139.925C671.318 140.825 668.318 141.275 664.568 141.275C661.118 141.275 657.968 140.75 655.118 139.7C652.418 138.5 650.243 136.925 648.593 134.975C647.093 132.875 646.043 130.55 645.443 128H611.918C612.518 135.35 614.993 141.95 619.343 147.8C623.843 153.65 629.918 158.3 637.568 161.75ZM740.177 159.725C744.077 163.325 749.102 165.125 755.252 165.125C761.252 165.125 766.127 163.325 769.877 159.725C773.627 155.975 775.502 151.475 775.502 146.225C775.502 140.825 773.627 136.325 769.877 132.725C766.127 128.975 761.252 127.1 755.252 127.1C749.102 127.1 744.077 128.975 740.177 132.725C736.427 136.325 734.552 140.825 734.552 146.225C734.552 151.475 736.427 155.975 740.177 159.725ZM799.707 2V164H833.457V2H799.707ZM863.219 50.6V164H896.969V50.6H863.219ZM865.469 32.375C869.219 35.825 874.094 37.55 880.094 37.55C886.244 37.55 891.194 35.825 894.944 32.375C898.844 28.925 900.794 24.575 900.794 19.325C900.794 13.925 898.844 9.5 894.944 6.05C891.194 2.6 886.244 0.875 880.094 0.875C874.094 0.875 869.219 2.6 865.469 6.05C861.719 9.5 859.844 13.925 859.844 19.325C859.844 24.575 861.719 28.925 865.469 32.375ZM926.709 50.6V164H960.459V103.475C960.459 97.775 961.509 92.9 963.609 88.85C965.709 84.8 968.559 81.725 972.159 79.625C975.909 77.375 980.034 76.25 984.534 76.25C992.184 76.25 997.734 78.575 1001.18 83.225C1004.78 87.725 1006.58 94.1 1006.58 102.35V164H1040.11V99.2C1040.11 88.25 1038.38 79.025 1034.93 71.525C1031.63 63.875 1026.76 58.025 1020.31 53.975C1013.86 49.925 1005.91 47.9 996.459 47.9C987.459 47.9 979.809 49.85 973.509 53.75C967.209 57.5 962.334 62.525 958.884 68.825L956.184 50.6H926.709ZM1101.96 108.468L1143.81 164H1185.66L1133.91 102.85L1178.46 50.6H1138.64L1101.96 95.7994V2H1068.21V164H1101.96V108.468Z" fill="black"/>
<path d="M186 64.451C186 72.0184 178.498 78.489 169.725 78.489H133.451C139.387 83.9497 140.116 94.4297 131.163 101.213C136.353 108.526 131.943 118.195 125.187 121.174C128.447 136.914 117.214 144 98.8125 144C97.8149 144 93.9896 143.935 93 143.938C70.4871 143.991 65.0659 133.987 48.0508 131.665C43.8103 131.086 40.6875 127.856 40.6875 124.072V69.1305L40.6882 69.1302C40.6922 63.2473 44.5416 57.6345 51.0287 55.0861C61.5224 50.9239 85.6904 39.3786 90.0938 30.3185C92.9263 24.4908 97.8622 21.0026 104.625 21C117.057 20.9955 125.605 32.2423 120.653 42.4315C119.351 45.109 117.633 47.7711 115.511 50.413H169.725C178.244 50.413 186 56.9932 186 64.451ZM34.875 64.5625V126.062C34.875 130.308 30.9715 133.75 26.1562 133.75H8.71875C3.90346 133.75 0 130.308 0 126.062V64.5625C0 60.3168 3.90346 56.875 8.71875 56.875H26.1562C30.9715 56.875 34.875 60.3168 34.875 64.5625ZM24.7031 118.375C24.7031 114.837 21.4503 111.969 17.4375 111.969C13.4247 111.969 10.1719 114.837 10.1719 118.375C10.1719 121.913 13.4247 124.781 17.4375 124.781C21.4503 124.781 24.7031 121.913 24.7031 118.375Z" fill="black"/>
</svg>
